# xmcd CD database file
#
# Track frame offsets:
#	150
#	26113
#	43024
#	66078
#	85198
#	120816
#	144445
#	173046
#	216921
#	233793
#	245586
#	255825
#	273774
#	285789
#	301553
#
# Disc length: 4265 seconds
#
# Revision: 0
# Processed by: cddbd v1.5.2PL0 Copyright (c) Steve Scherf et al.
# Submitted via: CDex 1.51
#
DISCID=ba10a70f
DTITLE=Lutz Gerlach - Ahrenshooper Social Club
DYEAR=2007
DGENRE=Jazz
TTITLE0=How to say and play
TTITLE1=Ein Fischländer in New York
TTITLE2=Grieg and Frieden
TTITLE3=a lonesome guitar (on the beach)
TTITLE4=two guitareros ...
TTITLE5=Ahrenshooper Social Club
TTITLE6=(Wind) stille Nacht (am Meer)
TTITLE7=Siesta Mexicana
TTITLE8=Fischlounge (mit Tommis Tute)
TTITLE9=your törn
TTITLE10=Die Weite des Strandes
TTITLE11=Ahrenhooper Social Club (unplugged)
TTITLE12=Der Himmel über Ahrenshoop
TTITLE13=Blue Bossa (am Morgen bringt ...)
TTITLE14=Caravan (the better house)
EXTD=YEAR: 2007
EXTT0=
EXTT1=
EXTT2=
EXTT3=
EXTT4=
EXTT5=
EXTT6=
EXTT7=
EXTT8=
EXTT9=
EXTT10=
EXTT11=
EXTT12=
EXTT13=
EXTT14=
PLAYORDER=
